<svg width="30" height="30" viewBox="0 0 30 30" fill="none" xmlns="http://www.w3.org/2000/svg">
<path fill-rule="evenodd" clip-rule="evenodd" d="M15.9375 1.875C19.1698 1.875 22.2698 3.15904 24.5554 5.44464C26.841 7.73024 28.125 10.8302 28.125 14.0625C28.125 17.2948 26.841 20.3948 24.5554 22.6804C22.2698 24.966 19.1698 26.25 15.9375 26.25C12.7052 26.25 9.60524 24.966 7.31964 22.6804C5.03404 20.3948 3.75 17.2948 3.75 14.0625C3.75 10.8302 5.03404 7.73024 7.31964 5.44464C9.60524 3.15904 12.7052 1.875 15.9375 1.875ZM25.1138 9.375C23.9112 7.03689 21.8649 5.24328 19.3894 4.3575C20.2219 5.9325 20.8237 7.62 21.1762 9.375H25.1138ZM26.205 14.9906C26.235 14.6822 26.25 14.3724 26.25 14.0625C26.2481 13.111 26.1137 12.1644 25.8506 11.25H21.4594C21.5194 11.8706 21.5625 12.495 21.5625 13.125C21.5586 14.3847 21.4292 15.6409 21.1762 16.875H25.8506C26.0287 16.2581 26.1469 15.6281 26.2069 14.9906H26.205ZM19.5769 14.9906L19.5881 14.895C19.6521 14.3071 19.6853 13.7163 19.6875 13.125C19.6749 12.4978 19.6273 11.8719 19.545 11.25H12.33C12.247 11.8718 12.1994 12.4978 12.1875 13.125C12.1921 14.3874 12.3386 15.6453 12.6244 16.875H19.2506C19.395 16.2525 19.5037 15.6244 19.5769 14.9906ZM19.2169 9.375C18.7751 7.39191 17.9779 5.50521 16.8638 3.80625C16.5563 3.78 16.2487 3.75 15.9375 3.75C15.7422 3.75095 15.547 3.76034 15.3525 3.77813L15.0112 3.80625L15 3.825C13.8917 5.51899 13.0984 7.39914 12.6581 9.375H19.2169ZM10.6987 9.375C11.0584 7.62121 11.6684 5.92826 12.51 4.34812C10.0237 5.23087 7.96774 7.02868 6.76125 9.375H10.6987ZM6.02438 11.25C5.76167 12.1645 5.62726 13.111 5.625 14.0625C5.62726 15.014 5.76167 15.9605 6.02438 16.875H10.6987C10.4445 15.6411 10.3151 14.3848 10.3125 13.125C10.3125 12.495 10.3556 11.8706 10.4156 11.25H6.02438ZM11.1881 18.75H6.76313C7.4719 20.1345 8.48385 21.3412 9.72363 22.2804C10.9634 23.2195 12.3991 23.8669 13.9237 24.1744C12.7237 22.5266 11.7998 20.6945 11.1881 18.75ZM15.9375 23.7075C17.1365 22.2246 18.0736 20.5481 18.7087 18.75H13.1662C13.8014 20.5481 14.7386 22.2246 15.9375 23.7075ZM20.6869 18.75C20.0752 20.6945 19.1512 22.5266 17.9513 24.1744C19.4758 23.8667 20.9114 23.2192 22.1511 22.2801C23.3909 21.3409 24.4029 20.1343 25.1119 18.75H20.6869Z" fill="#2A2A2A"/>
</svg>
