<svg width="50" height="50" viewBox="0 0 50 50" fill="none" xmlns="http://www.w3.org/2000/svg">
<path d="M39.2 16.8C38.1 17.3 37 17.6 35.7 17.8C36.9 17 37.9 15.9 38.4 14.5C37.2 15.2 35.9 15.7 34.6 16C33.5 14.8 31.9 14.1 30.2 14.1C26.9 14.1 24.1 16.8 24.1 20.2C24.1 20.7 24.2 21.1 24.3 21.6C19.3 21.4 14.8 18.9 11.8 15.3C11.3 16 11 17 11 18.1C11 20.2 12.1 22.1 13.7 23.1C12.7 23.1 11.8 22.8 11 22.3V22.4C11 25.3 13.1 27.8 15.9 28.3C15.4 28.4 14.9 28.5 14.3 28.5C13.9 28.5 13.5 28.5 13.2 28.4C14 30.8 16.2 32.6 18.9 32.6C16.8 34.2 14.2 35.2 11.4 35.2C10.9 35.2 10.4 35.2 10 35.1C12.4 37 15.6 38 19 38C30.1 38 36.2 28.8 36.2 20.8V20C37.4 19.1 38.4 18.1 39.2 16.8Z" fill="black"/>
</svg>
