<svg width="30" height="34" viewBox="0 0 30 34" fill="none" xmlns="http://www.w3.org/2000/svg">
<g clip-path="url(#clip0)">
<path d="M15.0067 9.32098C10.7478 9.32098 7.31252 12.7122 7.31252 16.9165C7.31252 21.1209 10.7478 24.5121 15.0067 24.5121C19.2656 24.5121 22.7009 21.1209 22.7009 16.9165C22.7009 12.7122 19.2656 9.32098 15.0067 9.32098ZM15.0067 21.8546C12.2545 21.8546 10.0045 19.6401 10.0045 16.9165C10.0045 14.193 12.2478 11.9784 15.0067 11.9784C17.7656 11.9784 20.0089 14.193 20.0089 16.9165C20.0089 19.6401 17.7589 21.8546 15.0067 21.8546ZM24.8103 9.01028C24.8103 9.99526 24.0067 10.7819 23.0156 10.7819C22.0179 10.7819 21.221 9.98865 21.221 9.01028C21.221 8.03192 22.0246 7.23865 23.0156 7.23865C24.0067 7.23865 24.8103 8.03192 24.8103 9.01028ZM29.9063 10.8084C29.7924 8.43516 29.2433 6.333 27.4822 4.60103C25.7277 2.86906 23.5982 2.32699 21.1942 2.208C18.7165 2.06918 11.2902 2.06918 8.81252 2.208C6.4152 2.32038 4.28573 2.86245 2.52457 4.59442C0.763411 6.32639 0.221 8.42855 0.100464 10.8017C-0.0401611 13.2477 -0.0401611 20.5788 0.100464 23.0247C0.214303 25.3979 0.763411 27.5001 2.52457 29.232C4.28573 30.964 6.4085 31.5061 8.81252 31.6251C11.2902 31.7639 18.7165 31.7639 21.1942 31.6251C23.5982 31.5127 25.7277 30.9706 27.4822 29.232C29.2366 27.5001 29.7857 25.3979 29.9063 23.0247C30.0469 20.5788 30.0469 13.2543 29.9063 10.8084ZM26.7054 25.6491C26.1831 26.9448 25.1719 27.943 23.8527 28.4652C21.8773 29.2386 17.1898 29.0602 15.0067 29.0602C12.8237 29.0602 8.12948 29.232 6.16073 28.4652C4.84823 27.9496 3.83707 26.9514 3.30805 25.6491C2.52457 23.699 2.70537 19.0716 2.70537 16.9165C2.70537 14.7615 2.53127 10.1275 3.30805 8.18396C3.83037 6.88829 4.84154 5.89009 6.16073 5.36785C8.13618 4.59442 12.8237 4.7729 15.0067 4.7729C17.1898 4.7729 21.8839 4.60103 23.8527 5.36785C25.1652 5.88348 26.1764 6.88168 26.7054 8.18396C27.4889 10.1341 27.3081 14.7615 27.3081 16.9165C27.3081 19.0716 27.4889 23.7056 26.7054 25.6491Z" fill="black"/>
</g>
<defs>
<clipPath id="clip0">
<rect width="30" height="33.8462" fill="white"/>
</clipPath>
</defs>
</svg>
